M48
;GenerationSoftware,Autodesk,EAGLE,9.6.2*%
;CreationDate,2025-06-18T20:34:22Z*%
FMAT,2
ICI,OFF
METRIC,TZ,000.000
T3C0.500
T2C1.000
T1C2.000
%
G90
M71
T1
X-41500Y15000
X-41500Y-15000
X41670Y14980
X41670Y-15020
T2
X25700Y-14170
X-26000Y8400
X25700Y-11630
X17800Y2400
X25000Y6500
X22000Y-12500
X23300Y-10200
X-22800Y8500
X7520Y-11950
X2440Y-11950
X-2640Y-11950
X-2650Y12450
X-2650Y-265
X-3740Y15250
X-16455Y15250
X4290Y-7500
X6830Y-7500
X9370Y-7500
X11910Y-7500
X14450Y-7500
X16990Y-7500
X19530Y-7500
X22070Y-7500
X24610Y-7500
X27150Y-7500
X29690Y-7500
X32230Y-7500
X34770Y-7500
X4290Y15360
X6830Y15360
X9370Y15360
X11910Y15360
X14450Y15360
X16990Y15360
X19530Y15360
X22070Y15360
X24610Y15360
X27150Y15360
X29690Y15360
X32230Y15360
X34770Y15360
X-7200Y-1540
X-7200Y-4080
X-7200Y-6620
X-17360Y12430
X-19900Y12430
X-22440Y12430
X-24980Y12430
X-27520Y12430
X-30060Y12430
X14110Y9688
X16650Y9688
X19190Y9688
X21730Y9688
X24270Y9688
X11570Y9688
X9030Y9688
X6490Y9688
X3950Y9688
X1410Y9688
X28390Y-11295
X28390Y-15105
X36010Y-11295
X36010Y-15105
T3
X19560Y13750
X22000Y13700
X19510Y-10500
X11890Y-10500
X19510Y-13030
X11890Y-13030
X15490Y-15000
X23110Y-15000
M30