G04 EAGLE Gerber RS-274X export*
G75*
%MOMM*%
%FSLAX34Y34*%
%LPD*%
%INTop Copper*%
%IPPOS*%
%AMOC8*
5,1,8,0,0,1.08239X$1,22.5*%
G01*
%ADD10C,3.000000*%
%ADD11C,2.184400*%
%ADD12R,2.184400X2.184400*%
%ADD13C,1.778000*%
%ADD14C,2.540000*%
%ADD15C,2.000000*%
%ADD16C,2.000000*%
%ADD17C,1.270000*%
%ADD18C,1.016000*%
%ADD19C,2.200000*%
%ADD20C,2.235200*%
%ADD21C,2.150000*%
%ADD22C,2.200000*%


D10*
X75200Y-119500D03*
X24400Y-119500D03*
X-26400Y-119500D03*
D11*
X-26500Y124500D03*
X-26500Y-2650D03*
X-37400Y152500D03*
X-164550Y152500D03*
X42900Y-75000D03*
X68300Y-75000D03*
X93700Y-75000D03*
X119100Y-75000D03*
X144500Y-75000D03*
X169900Y-75000D03*
X195300Y-75000D03*
X220700Y-75000D03*
X246100Y-75000D03*
X271500Y-75000D03*
X296900Y-75000D03*
X322300Y-75000D03*
X347700Y-75000D03*
X42900Y153600D03*
X68300Y153600D03*
X93700Y153600D03*
X119100Y153600D03*
X144500Y153600D03*
X169900Y153600D03*
X195300Y153600D03*
X220700Y153600D03*
X246100Y153600D03*
X271500Y153600D03*
X296900Y153600D03*
X322300Y153600D03*
X347700Y153600D03*
X-72000Y-15400D03*
X-72000Y-40800D03*
X-72000Y-66200D03*
D12*
X-173600Y124300D03*
D11*
X-199000Y124300D03*
X-224400Y124300D03*
X-249800Y124300D03*
X-275200Y124300D03*
X-300600Y124300D03*
X141100Y96875D03*
X166500Y96875D03*
X191900Y96875D03*
X217300Y96875D03*
X242700Y96875D03*
X115700Y96875D03*
X90300Y96875D03*
X64900Y96875D03*
X39500Y96875D03*
D12*
X14100Y96875D03*
D13*
X283900Y-112950D02*
X301680Y-112950D01*
X301680Y-151050D02*
X283900Y-151050D01*
X342320Y-112950D02*
X360100Y-112950D01*
X360100Y-151050D02*
X342320Y-151050D01*
D11*
X195100Y-130300D03*
X118900Y-130300D03*
X195100Y-105000D03*
X118900Y-105000D03*
X257000Y-141700D03*
X257000Y-116300D03*
X154900Y-150000D03*
X231100Y-150000D03*
D14*
X-228000Y85000D03*
D15*
X-249800Y111800D02*
X-249800Y124300D01*
D16*
X195600Y137500D03*
D15*
X-228000Y90000D02*
X-228000Y85000D01*
X-228000Y90000D02*
X-249800Y111800D01*
X195300Y152700D02*
X195300Y153600D01*
X195300Y152700D02*
X195600Y152400D01*
X195600Y137500D01*
X-275200Y124300D02*
X-275200Y103200D01*
X-274000Y102000D01*
D14*
X-260000Y84000D03*
D15*
X-275200Y99200D02*
X-275200Y103200D01*
X-275200Y99200D02*
X-260000Y84000D01*
D16*
X220000Y137000D03*
D15*
X220000Y152900D02*
X220700Y153600D01*
X220000Y152900D02*
X220000Y137000D01*
D17*
X217300Y98875D02*
X217300Y96875D01*
X217300Y98875D02*
X222380Y103955D01*
X222380Y105292D01*
X-165902Y103602D02*
X-173600Y111300D01*
X-173600Y124300D01*
X-165902Y103602D02*
X-14908Y103602D01*
X347700Y21612D02*
X347700Y-75000D01*
X347700Y21612D02*
X251817Y117495D01*
D18*
X347700Y-75000D02*
X347700Y-79541D01*
D17*
X322000Y-105241D01*
X322000Y-151000D01*
D18*
X321950Y-151050D01*
D17*
X283900Y-151050D01*
X322050Y-151050D02*
X360100Y-151050D01*
D18*
X322050Y-151050D02*
X322000Y-151000D01*
D17*
X262080Y-121380D02*
X257000Y-116300D01*
X262080Y-121380D02*
X266017Y-121380D01*
X283900Y-139263D01*
X283900Y-151050D01*
X-915Y117595D02*
X-14908Y103602D01*
X201017Y117195D02*
X212220Y105992D01*
X200317Y117195D02*
X199917Y117595D01*
X212220Y105992D02*
X212220Y101955D01*
X217300Y96875D01*
X199917Y117595D02*
X-915Y117595D01*
X200317Y117195D02*
X201017Y117195D01*
X213372Y117195D01*
X215965Y114602D01*
X223226Y113602D02*
X224000Y113602D01*
X217300Y101976D02*
X217300Y96875D01*
X217300Y101976D02*
X232519Y117195D01*
X232819Y117495D01*
X251817Y117495D01*
X232519Y117195D02*
X213372Y117195D01*
X191900Y96875D02*
X191900Y90100D01*
X271500Y10500D02*
X271500Y-75000D01*
X271500Y10500D02*
X191900Y90100D01*
X-164550Y152500D02*
X-188235Y152500D01*
X-167050Y155000D02*
X-164550Y152500D01*
D19*
X41800Y152500D02*
X42900Y153600D01*
D14*
X178000Y24000D03*
D20*
X250000Y65000D03*
D15*
X250620Y65620D01*
D19*
X-26500Y141600D02*
X-37400Y152500D01*
X-26500Y141600D02*
X-26500Y124500D01*
X-37400Y135400D02*
X-37400Y152500D01*
X-37400Y135400D02*
X-26500Y124500D01*
X-37400Y152500D02*
X41800Y152500D01*
X1140Y152140D02*
X-26500Y124500D01*
X1140Y152140D02*
X41630Y152140D01*
D15*
X-185857Y152840D02*
X-199000Y139697D01*
X-199000Y124300D01*
X-185857Y152840D02*
X-166050Y152840D01*
D19*
X-26500Y-2650D02*
X500Y24350D01*
X177650Y24350D02*
X178000Y24000D01*
X177650Y24350D02*
X500Y24350D01*
D15*
X250000Y65000D02*
X250000Y89575D01*
X242700Y96875D01*
X241270Y73730D02*
X250000Y65000D01*
X241270Y73730D02*
X241270Y92000D01*
D17*
X166500Y96875D02*
X166500Y84500D01*
X246100Y4900D02*
X246100Y-75000D01*
X246100Y4900D02*
X166500Y84500D01*
X-66920Y-20480D02*
X-72000Y-15400D01*
X52200Y-96500D02*
X75200Y-119500D01*
X52200Y-96500D02*
X33651Y-96500D01*
X-66034Y-15400D02*
X-72000Y-15400D01*
X-66034Y-15400D02*
X-37286Y-44148D01*
X-18701Y-44148D02*
X33651Y-96500D01*
X-18701Y-44148D02*
X-37286Y-44148D01*
X-66820Y-45980D02*
X-72000Y-40800D01*
X-66820Y-45980D02*
X-62583Y-45980D01*
X10937Y-119500D02*
X24400Y-119500D01*
X10937Y-119500D02*
X-62583Y-45980D01*
X-72000Y-66200D02*
X-26400Y-111800D01*
X-26400Y-119500D01*
X-219320Y119220D02*
X-224400Y124300D01*
X-219320Y119220D02*
X-219320Y112183D01*
X-193137Y86000D01*
X72817Y75355D02*
X85220Y87758D01*
X85220Y91795D01*
X90300Y96875D01*
X-11260Y86000D02*
X-193137Y86000D01*
X-11260Y86000D02*
X-615Y75355D01*
X72817Y75355D01*
X-300600Y92600D02*
X-300600Y124300D01*
X195300Y-60300D02*
X195300Y-75000D01*
X195300Y-60300D02*
X162000Y-27000D01*
X-214120Y6120D02*
X-300600Y92600D01*
X-31363Y-27000D02*
X162000Y-27000D01*
X-51426Y-6937D02*
X-51426Y-6878D01*
X-51426Y-6937D02*
X-31363Y-27000D01*
X-64424Y6120D02*
X-214120Y6120D01*
X-64424Y6120D02*
X-51426Y-6878D01*
D15*
X360100Y-104499D02*
X360100Y-112950D01*
X360100Y-104499D02*
X374670Y-89929D01*
X272930Y143071D02*
X272930Y143670D01*
X271500Y145100D01*
X271500Y153600D01*
X374670Y41331D02*
X374670Y-89929D01*
X374670Y41331D02*
X272930Y143071D01*
X144500Y-75000D02*
X144500Y-84500D01*
X124000Y-105000D01*
D17*
X118900Y-105000D01*
D15*
X118900Y-130300D01*
X169900Y-92100D02*
X169900Y-75000D01*
X154900Y-107100D02*
X154900Y-150000D01*
X154900Y-107100D02*
X169900Y-92100D01*
D21*
X231100Y-150000D02*
X239400Y-141700D01*
X257000Y-141700D01*
D22*
X220000Y-125000D03*
D15*
X214700Y-130300D02*
X195100Y-130300D01*
X214700Y-130300D02*
X220000Y-125000D01*
D22*
X233000Y-102000D03*
D15*
X205632Y-105000D02*
X195100Y-105000D01*
X205632Y-105000D02*
X209934Y-100698D01*
X230066Y-100698D01*
X231368Y-102000D01*
X233000Y-102000D01*
M02*
