G04 EAGLE Gerber RS-274X export*
G75*
%MOMM*%
%FSLAX34Y34*%
%LPD*%
%INSoldermask Bottom*%
%IPPOS*%
%AMOC8*
5,1,8,0,0,1.08239X$1,22.5*%
G01*
%ADD10C,2.203200*%
%ADD11C,3.203200*%
%ADD12C,2.387600*%
%ADD13R,2.387600X2.387600*%
%ADD14C,1.981200*%
%ADD15C,2.743200*%
%ADD16C,2.438400*%
%ADD17C,2.403200*%


D10*
X416700Y149800D03*
X-415000Y150000D03*
X-415000Y-150000D03*
X416700Y-150200D03*
D11*
X75200Y-119500D03*
X24400Y-119500D03*
X-26400Y-119500D03*
D12*
X-26500Y124500D03*
X-26500Y-2650D03*
X-37400Y152500D03*
X-164550Y152500D03*
X42900Y-75000D03*
X68300Y-75000D03*
X93700Y-75000D03*
X119100Y-75000D03*
X144500Y-75000D03*
X169900Y-75000D03*
X195300Y-75000D03*
X220700Y-75000D03*
X246100Y-75000D03*
X271500Y-75000D03*
X296900Y-75000D03*
X322300Y-75000D03*
X347700Y-75000D03*
X42900Y153600D03*
X68300Y153600D03*
X93700Y153600D03*
X119100Y153600D03*
X144500Y153600D03*
X169900Y153600D03*
X195300Y153600D03*
X220700Y153600D03*
X246100Y153600D03*
X271500Y153600D03*
X296900Y153600D03*
X322300Y153600D03*
X347700Y153600D03*
X-72000Y-15400D03*
X-72000Y-40800D03*
X-72000Y-66200D03*
D13*
X-173600Y124300D03*
D12*
X-199000Y124300D03*
X-224400Y124300D03*
X-249800Y124300D03*
X-275200Y124300D03*
X-300600Y124300D03*
X141100Y96875D03*
X166500Y96875D03*
X191900Y96875D03*
X217300Y96875D03*
X242700Y96875D03*
X115700Y96875D03*
X90300Y96875D03*
X64900Y96875D03*
X39500Y96875D03*
D13*
X14100Y96875D03*
D14*
X283900Y-112950D02*
X301680Y-112950D01*
X301680Y-151050D02*
X283900Y-151050D01*
X342320Y-112950D02*
X360100Y-112950D01*
X360100Y-151050D02*
X342320Y-151050D01*
D12*
X195100Y-130300D03*
X118900Y-130300D03*
X195100Y-105000D03*
X118900Y-105000D03*
X257000Y-141700D03*
X257000Y-116300D03*
X154900Y-150000D03*
X231100Y-150000D03*
D15*
X-228000Y85000D03*
D10*
X195600Y137500D03*
D15*
X-260000Y84000D03*
D10*
X220000Y137000D03*
D15*
X178000Y24000D03*
D16*
X250000Y65000D03*
D17*
X220000Y-125000D03*
X233000Y-102000D03*
M02*
